<?xml version="1.0" encoding="UTF-8"?>
<!-- Generator: Adobe Illustrator 21.1.0, SVG Export Plug-In . SVG Version: 6.00 Build 0)  -->
<svg version="1.1" id="Layer_1" xmlns="http://www.w3.org/2000/svg" xmlns:xlink="http://www.w3.org/1999/xlink" x="0px" y="0px" viewBox="0 0 32 32" style="enable-background:new 0 0 32 32;" xml:space="preserve">
<style type="text/css">
	.st0{fill:#60A645;}
</style>
<g>
	<g>
		<g>
			<g>
				<g>
					<path class="st0" d="M16,32C7.2,32,0,24.8,0,16C0,7.2,7.2,0,16,0c8.8,0,16,7.2,16,16C32,24.8,24.8,32,16,32z M16,2       C8.3,2,2,8.3,2,16c0,7.7,6.3,14,14,14c7.7,0,14-6.3,14-14C30,8.3,23.7,2,16,2z"/>
				</g>
			</g>
		</g>
	</g>
	<g>
		<path class="st0" d="M13,22c-0.3,0-0.5-0.1-0.7-0.3l-5-5l1.4-1.4l4.3,4.3L23.3,9.3l1.4,1.4l-11,11C13.5,21.9,13.3,22,13,22z"/>
	</g>
</g>
</svg>