<?xml version="1.0" encoding="utf-8"?>
<!-- Generator: Adobe Illustrator 21.0.2, SVG Export Plug-In . SVG Version: 6.00 Build 0)  -->
<svg version="1.1" id="Layer_1" xmlns="http://www.w3.org/2000/svg" xmlns:xlink="http://www.w3.org/1999/xlink" x="0px" y="0px"
	 viewBox="0 0 2500 2500" style="enable-background:new 0 0 2500 2500;" xml:space="preserve">
<style type="text/css">
	.st0{fill:#F7931A;}
	.st1{fill:#FFFFFF;}
</style>
<path class="st0" d="M1249.9,276.4c415.1-2.1,762.2,341.3,756,770.1c-5.9,408.1-341.9,749.7-764.5,745.7
	c-410-3.9-754.9-344.1-747.5-772.1C500.8,613.3,834,275.2,1249.9,276.4z M1465.4,922.6c0.7-1.9,0.7-2.5,1-2.8c1.5-1.7,3-3.3,4.5-4.9
	c30.9-33,42.9-71.9,35-116.3c-6-34.1-21.5-64.1-45.5-88.9c-26-26.9-60.2-37.1-96.4-38.1c-31.1-0.8-62.4,1.4-93.5,3.6
	c-8.4,0.6-11-1.3-12.9-8.9c-9.7-38.6-20-77.1-29.9-115.7c-1.8-7.1-5-9.6-12.5-7.5c-21.2,5.8-42.6,10.8-63.9,16.4
	c-11.8,3.1-11.8,3.4-8.9,15.6c8.8,37.1,17.6,74.2,26.6,111.2c1.6,6.4-0.5,9-6.7,10.5c-13.8,3.2-27.5,7.2-41.2,10.8
	c-11.2,2.9-10.9,2.7-13.6-8.4c-9.1-37.6-18.7-75.2-27.8-112.8c-1.5-6.2-4.2-8.2-10.6-6.4c-22.9,6.1-45.8,12-68.8,17.4
	c-7.6,1.8-9,5.2-7.1,12.4c10.1,39.1,19.6,78.3,29.8,117.4c1.7,6.6,0,9-6.2,10.5c-19.5,4.5-39,9.2-58.5,14.1
	c-30.8,7.7-61.6,15.5-92.3,23.4c-3.9,1-8.6,1.3-6.8,7.9c6.9,25.5,13.5,51.1,20.5,76.6c2.8,10.1,3.9,10.3,14.4,7.4
	c17.7-4.9,35.3-10.6,53.2-14.4c27.5-5.7,43.8,4.8,52,31.5c0.6,1.9,1.1,3.7,1.6,5.6c22.3,89.7,44.5,179.4,66.9,269.1
	c6.7,26.7,14.7,53.2,20.7,80c6,26.4-2.1,38.6-28,46c-4.3,1.2-8.7,1.9-13,2.8c-11.4,2.3-22.9,4.5-34.3,7.1c-4.6,1.1-7.8,3.9-7.2,9.6
	c2.8,29.6,5.3,59.3,8.1,88.9c1,11,1.2,10.8,12.4,8c49-12.1,98-23.8,146.9-36c6.6-1.6,9.1,0,10.3,6.5c1.7,9,4.1,17.9,6.3,26.8
	c7.9,31,15.9,62,24,93c1.1,4.1,1.8,8.9,8.7,7.1c23.2-6,46.5-11.7,69.8-17.1c7.1-1.6,9-5.2,7.3-11.9c-3.1-12.2-5.8-24.4-8.8-36.6
	c-6.7-27.1-13.7-54-20.1-81.2c-0.7-2.9,1-9,2.6-9.5c16.6-4.5,33.5-8.5,50.4-11.8c2.4-0.5,7.1,3,8.1,5.6c3,8,4.8,16.6,6.9,24.9
	c8,31,15.8,62.1,23.9,93.1c1,3.8,1.6,8.8,7.9,7.2c25.1-6.3,50.3-12.5,75.3-19.3c2-0.5,4.2-4.9,4.2-7.4c-0.1-4.3-2.1-8.6-3.1-13
	c-8.6-34.9-17.3-69.8-25.6-104.7c-3-12.7-2.4-12.4,9.4-17.1c28.9-11.7,58.2-22.7,86.4-36c38.2-18,69.7-44.3,89-82.9
	c24.9-49.5,24.3-100.5,7.8-152.1c-18.4-57.5-55.9-93.3-116.8-102.3C1486.9,925.1,1476.5,924,1465.4,922.6z"/>
<path class="st0" d="M1787.7,275.3c2.2,0,4.9,0,7.7,0c223.8,0,447.7,0,671.5,0c12.6,0,12.6,0,12.6,12.8c0,497.4,0,994.8,0,1492.1
	c0,12.9,0,12.9-13.3,12.9c-223.6,0-447.1,0-670.7,0c-2.8,0-5.6,0-8.1,0c249.9-191.3,388-441.3,388.1-758.7
	C2175.5,717,2037.5,467.2,1787.7,275.3z"/>
<path class="st0" d="M712.2,275.4C460.9,467.1,323.6,718.2,323.8,1035c0.2,316.6,138,567.4,388.7,758.1c-2.3,0-5.1,0-7.8,0
	c-224.1,0-448.3,0-672.4,0c-11.9,0-11.9,0-11.9-11.8c0-497.9,0-995.9,0-1493.8c0-12,0-12.1,11.7-12.1c223.9,0,447.7,0,671.6,0
	C706.5,275.4,709.2,275.4,712.2,275.4z"/>
<path class="st1" d="M1465.4,922.6c11.1,1.4,21.5,2.5,31.9,4c60.9,9,98.4,44.9,116.8,102.3c16.5,51.6,17.1,102.6-7.8,152.1
	c-19.4,38.6-50.8,64.8-89,82.9c-28.2,13.3-57.5,24.3-86.4,36c-11.8,4.8-12.4,4.4-9.4,17.1c8.3,35,17,69.8,25.6,104.7
	c1.1,4.3,3,8.6,3.1,13c0.1,2.5-2.2,6.9-4.2,7.4c-25,6.7-50.2,12.9-75.3,19.3c-6.3,1.6-6.9-3.4-7.9-7.2c-8-31-15.9-62-23.9-93.1
	c-2.1-8.4-3.9-16.9-6.9-24.9c-1-2.6-5.8-6.1-8.1-5.6c-16.9,3.3-33.7,7.2-50.4,11.8c-1.7,0.5-3.3,6.5-2.6,9.5
	c6.4,27.1,13.3,54.1,20.1,81.2c3,12.2,5.7,24.4,8.8,36.6c1.7,6.7-0.2,10.3-7.3,11.9c-23.3,5.4-46.6,11.1-69.8,17.1
	c-6.9,1.8-7.6-3-8.7-7.1c-8.1-31-16-62-24-93c-2.3-8.9-4.7-17.8-6.3-26.8c-1.2-6.5-3.7-8.2-10.3-6.5c-48.9,12.2-98,24-146.9,36
	c-11.2,2.8-11.4,3-12.4-8c-2.8-29.6-5.3-59.3-8.1-88.9c-0.5-5.7,2.6-8.6,7.2-9.6c11.4-2.6,22.9-4.8,34.3-7.1c4.4-0.9,8.8-1.6,13-2.8
	c25.9-7.3,34-19.6,28-46c-6.1-26.9-14.1-53.3-20.7-80c-22.4-89.7-44.6-179.4-66.9-269.1c-0.5-1.9-1-3.8-1.6-5.6
	c-8.1-26.8-24.5-37.2-52-31.5c-18,3.7-35.5,9.4-53.2,14.4c-10.5,2.9-11.6,2.7-14.4-7.4c-7-25.5-13.6-51.1-20.5-76.6
	c-1.8-6.6,2.9-6.9,6.8-7.9c30.8-7.9,61.5-15.7,92.3-23.4c19.4-4.9,38.9-9.6,58.5-14.1c6.2-1.4,7.9-3.8,6.2-10.5
	c-10.2-39.1-19.7-78.3-29.8-117.4c-1.9-7.2-0.5-10.6,7.1-12.4c23-5.4,46-11.3,68.8-17.4c6.4-1.7,9.1,0.2,10.6,6.4
	c9.1,37.6,18.7,75.2,27.8,112.8c2.7,11.1,2.4,11.3,13.6,8.4c13.7-3.6,27.4-7.6,41.2-10.8c6.3-1.5,8.3-4.1,6.7-10.5
	c-9-37-17.8-74.1-26.6-111.2c-2.9-12.2-2.9-12.5,8.9-15.6c21.3-5.6,42.7-10.6,63.9-16.4c7.5-2,10.7,0.5,12.5,7.5
	c9.9,38.6,20.2,77.1,29.9,115.7c1.9,7.6,4.5,9.4,12.9,8.9c31.1-2.2,62.4-4.4,93.5-3.6c36.2,1,70.3,11.1,96.4,38.1
	c24,24.8,39.4,54.8,45.5,88.9c7.9,44.4-4.1,83.4-35,116.3c-1.5,1.6-3.1,3.2-4.5,4.9C1466.1,920.1,1466.1,920.7,1465.4,922.6z
	 M1199.3,1058.5c15.4,61.5,30,120.1,44.7,179c2.5-0.2,4.4,0,6.2-0.5c25.1-6.4,50.2-12.7,75.2-19.5c30.5-8.3,59.9-19.6,86.1-37.8
	c24.6-17,39.1-40.5,41.2-70.4c2.4-35.3-22.4-65.6-60.1-75.1c-23.9-6-48.4-5.9-72.3-1.5C1279.8,1040.2,1239.8,1049.8,1199.3,1058.5z
	 M1352.5,859.2c-0.6-3.4-1.3-8.6-2.7-13.7c-9.4-36.8-39.9-58.7-82.1-59.1c-42.7-0.4-83,12.2-123.4,23.7c-5.6,1.6-5.5,5.5-4.4,9.9
	c12.3,48.3,24.7,96.6,36.7,145c1.8,7.4,5.7,8.6,12.2,6.9c8.6-2.2,17.4-3.8,26-6.2c39.2-10.9,77.1-24.4,108.8-51.1
	C1340.3,900.7,1351.4,883.5,1352.5,859.2z"/>
<path class="st0" d="M1199.3,1058.5c40.5-8.7,80.6-18.3,121-25.8c23.9-4.4,48.3-4.5,72.3,1.5c37.7,9.5,62.5,39.8,60.1,75.1
	c-2.1,29.9-16.6,53.4-41.2,70.4c-26.2,18.2-55.6,29.5-86.1,37.8c-25,6.8-50.1,13.1-75.2,19.5c-1.8,0.5-3.8,0.3-6.2,0.5
	C1229.3,1178.6,1214.7,1120,1199.3,1058.5z"/>
<path class="st0" d="M1352.5,859.2c-1.1,24.3-12.2,41.5-28.9,55.4c-31.7,26.6-69.7,40.2-108.8,51.1c-8.6,2.4-17.4,3.9-26,6.2
	c-6.5,1.7-10.3,0.5-12.2-6.9c-12.1-48.4-24.4-96.7-36.7-145c-1.1-4.4-1.2-8.3,4.4-9.9c40.4-11.6,80.7-24.1,123.4-23.7
	c42.2,0.4,72.7,22.4,82.1,59.1C1351.1,850.6,1351.9,855.8,1352.5,859.2z"/>
</svg>
