<?xml version="1.0" encoding="windows-1252"?>
<!-- Generator: Adobe Illustrator 21.0.2, SVG Export Plug-In . SVG Version: 6.00 Build 0)  -->
<svg version="1.1" id="Layer_1" xmlns="http://www.w3.org/2000/svg" xmlns:xlink="http://www.w3.org/1999/xlink" x="0px" y="0px" viewBox="110.127 454.095 33.228 35.872" style="enable-background:new 110.127 454.095 33.228 35.872;" xml:space="preserve">
<g>
	<g>
		<defs>
			<rect id="SVGID_1_" x="110.127" y="454.095" width="33.228" height="35.872"/>
		</defs>
		<clipPath id="SVGID_2_">
			<use xlink:href="#SVGID_1_" style="overflow:visible;"/>
		</clipPath>
		<path style="clip-path:url(#SVGID_2_);" d="M119.592,477.672h19.691c2.233,0,4.054-1.822,4.054-4.054v-8.373    c0-0.015,0-0.029-0.007-0.044c0-0.014-0.008-0.037-0.008-0.051c0-0.015-0.007-0.029-0.007-0.044    c-0.008-0.015-0.008-0.029-0.015-0.051c-0.008-0.015-0.008-0.029-0.015-0.044c-0.008-0.015-0.008-0.029-0.015-0.044    c-0.008-0.015-0.015-0.029-0.022-0.051c-0.007-0.015-0.015-0.029-0.022-0.037l-0.022-0.044c-0.008-0.014-0.015-0.022-0.022-0.037    c-0.007-0.015-0.022-0.029-0.029-0.044c-0.007-0.015-0.015-0.022-0.029-0.037c-0.007-0.015-0.022-0.022-0.029-0.037    c-0.007-0.015-0.022-0.022-0.029-0.037c-0.007-0.015-0.022-0.022-0.029-0.029L143,464.576c-0.015-0.008-0.022-0.022-0.037-0.029    c-0.015-0.008-0.029-0.022-0.044-0.029c-0.015-0.008-0.022-0.015-0.037-0.022c-0.015-0.007-0.029-0.015-0.044-0.029l-0.088-0.044    l-0.044-0.022c-0.015-0.007-0.029-0.007-0.044-0.015c-0.015-0.007-0.037-0.015-0.051-0.015c-0.015,0-0.029-0.007-0.037-0.007    c-0.022-0.008-0.037-0.008-0.059-0.008c-0.007,0-0.015-0.007-0.029-0.007l-24.958-3.445v-3.482c0-0.037,0-0.073-0.007-0.103    c0-0.007,0-0.015-0.008-0.029c0-0.022-0.007-0.044-0.007-0.066c-0.007-0.022-0.007-0.037-0.015-0.059    c0-0.015-0.007-0.022-0.007-0.037l-0.022-0.066c0-0.008-0.007-0.022-0.007-0.029c-0.008-0.022-0.015-0.037-0.029-0.059    c-0.008-0.008-0.008-0.022-0.015-0.029c-0.008-0.015-0.015-0.029-0.029-0.044c-0.008-0.015-0.015-0.022-0.022-0.037    c-0.007-0.015-0.015-0.022-0.022-0.037c-0.008-0.015-0.022-0.029-0.029-0.044l-0.066-0.066l-0.022-0.022    c-0.015-0.015-0.029-0.029-0.051-0.044c-0.008-0.008-0.022-0.015-0.029-0.022c-0.015-0.015-0.029-0.022-0.044-0.037    c-0.022-0.015-0.044-0.029-0.059-0.037c-0.007-0.008-0.015-0.008-0.022-0.015c-0.029-0.015-0.066-0.029-0.095-0.044l-5.413-2.277    c-0.507-0.213-1.087,0.022-1.3,0.529c-0.213,0.507,0.022,1.087,0.529,1.3l4.804,2.027v21.726c0,2.056,1.542,3.76,3.533,4.017    c-0.36,0.602-0.573,1.308-0.573,2.057c0,2.211,1.799,4.003,4.003,4.003s4.003-1.799,4.003-4.003c0-0.734-0.198-1.432-0.551-2.02    h8.917c-0.353,0.595-0.551,1.285-0.551,2.02c0,2.211,1.799,4.003,4.003,4.003c2.203,0,4.003-1.799,4.003-4.003    s-1.8-4.003-4.003-4.003h-18.729c-1.146,0-2.071-0.933-2.071-2.071v-2.688C118.123,477.466,118.836,477.672,119.592,477.672    L119.592,477.672z M124.528,485.868c0,1.116-0.911,2.02-2.02,2.02c-1.109,0-2.02-0.911-2.02-2.02c0-1.109,0.911-2.02,2.02-2.02    C123.617,483.849,124.528,484.752,124.528,485.868L124.528,485.868z M140.349,485.868c0,1.116-0.911,2.02-2.02,2.02    c-1.109,0-2.02-0.911-2.02-2.02c0-1.109,0.911-2.02,2.02-2.02C139.438,483.849,140.349,484.752,140.349,485.868L140.349,485.868z     M139.283,475.689h-19.691c-1.146,0-2.071-0.933-2.071-2.071v-10.716l23.834,3.283v7.425    C141.355,474.763,140.422,475.689,139.283,475.689L139.283,475.689z M139.283,475.689"/>
	</g>
</g>
</svg>