<?xml version="1.0" encoding="windows-1252"?>
<!-- Generator: Adobe Illustrator 21.0.2, SVG Export Plug-In . SVG Version: 6.00 Build 0)  -->
<svg version="1.1" id="Layer_1" xmlns="http://www.w3.org/2000/svg" xmlns:xlink="http://www.w3.org/1999/xlink" x="0px" y="0px" viewBox="209.936 515.147 30.102 30.229" style="enable-background:new 209.936 515.147 30.102 30.229;" xml:space="preserve">
<path d="M230.282,534.13l-0.58-0.203l0.525-0.32c2.967-1.805,4.739-4.976,4.739-8.481c0-5.503-4.476-9.98-9.98-9.98  s-9.98,4.477-9.98,9.98c0,3.505,1.772,6.676,4.739,8.481l0.51,0.311l-0.559,0.21c-4.952,1.857-8.664,6.148-9.761,11.248h1.982  c1.409-5.965,6.867-10.27,13.069-10.27c6.202,0,11.66,4.305,13.069,10.27h1.983C238.943,540.152,235.232,535.861,230.282,534.13z   M216.993,525.126c0-4.407,3.586-7.993,7.993-7.993c4.407,0,7.993,3.586,7.993,7.993s-3.586,7.993-7.993,7.993  C220.579,533.119,216.993,529.534,216.993,525.126z"/>
</svg>