<?xml version="1.0" standalone="no"?>
<!DOCTYPE svg PUBLIC "-//W3C//DTD SVG 20010904//EN"
 "http://www.w3.org/TR/2001/REC-SVG-20010904/DTD/svg10.dtd">
<svg version="1.0" xmlns="http://www.w3.org/2000/svg"
 width="1419.000000pt" height="309.000000pt" viewBox="0 0 1419.000000 309.000000"
 preserveAspectRatio="xMidYMid meet">

<g transform="translate(0.000000,309.000000) scale(0.100000,-0.100000)"
fill="#000000" stroke="none">
<path d="M12395 3074 c-209 -32 -453 -130 -637 -256 -110 -74 -283 -242 -360
-348 -150 -207 -239 -416 -284 -670 -23 -130 -23 -381 0 -515 112 -640 610
-1143 1246 -1262 132 -24 428 -24 560 0 552 103 1012 502 1188 1032 44 133 81
344 82 468 l0 27 -725 0 -725 0 0 -205 0 -205 455 0 455 0 -36 -72 c-118 -236
-338 -440 -569 -529 -164 -64 -214 -73 -405 -73 -191 0 -241 9 -405 73 -174
67 -374 226 -484 386 -209 302 -255 672 -125 1009 127 329 403 574 752 668
110 29 336 36 456 14 207 -39 394 -135 560 -287 l59 -54 160 165 160 165 -83
77 c-216 203 -519 349 -814 393 -127 18 -358 18 -481 -1z"/>
<path d="M0 1545 l0 -1515 235 0 235 0 2 1189 3 1189 514 -629 c283 -346 517
-629 520 -628 4 0 236 281 516 624 l510 624 3 -1185 2 -1184 240 0 240 0 0
1515 0 1515 -272 0 -273 0 -480 -605 c-264 -332 -483 -604 -486 -604 -3 -1
-223 271 -488 604 l-483 605 -269 0 -269 0 0 -1515z"/>
<path d="M3661 3038 c7 -13 250 -420 541 -905 l528 -882 0 -611 0 -610 235 0
235 0 0 608 0 609 540 897 c297 493 540 901 540 906 0 6 -100 10 -257 10
l-258 -1 -395 -664 c-217 -366 -398 -664 -403 -662 -4 1 -185 299 -401 662
l-392 660 -263 3 -262 2 12 -22z"/>
<path d="M6920 2830 l0 -230 558 0 c622 0 641 -2 762 -66 302 -158 303 -598 3
-748 -100 -50 -152 -56 -490 -56 -172 0 -313 -2 -313 -5 0 -3 243 -385 539
-848 l539 -842 276 -3 c177 -1 276 1 276 8 0 5 -182 289 -405 632 l-406 622
63 17 c249 67 422 203 528 414 75 150 107 348 89 545 -40 440 -307 716 -754
780 -40 5 -324 10 -667 10 l-598 0 0 -230z"/>
<path d="M9840 1545 l0 -1515 240 0 240 0 0 1515 0 1515 -240 0 -240 0 0
-1515z"/>
</g>
</svg>
