<?xml version="1.0" encoding="utf-8"?>
<!-- Generator: Adobe Illustrator 21.0.2, SVG Export Plug-In . SVG Version: 6.00 Build 0)  -->
<svg version="1.1" id="Layer_1" xmlns="http://www.w3.org/2000/svg" xmlns:xlink="http://www.w3.org/1999/xlink" x="0px" y="0px"
	 viewBox="0 0 327.5 74.4" style="enable-background:new 0 0 327.5 74.4;" xml:space="preserve">
<style type="text/css">
	.st0{fill-rule:evenodd;clip-rule:evenodd;fill:#5FA544;}
	.st1{fill-rule:evenodd;clip-rule:evenodd;fill:#FFFFFF;}
	.st2{fill-rule:evenodd;clip-rule:evenodd;fill:#FFFFFF;}
</style>
<g>
	<polygon class="st0" points="0.2,48.9 327.5,48.9 327.5,74.4 0.2,74.4 0.2,48.9 	"/>
	<path class="st1" d="M0,41.6V0h33.9c2.3,0,4.2,0.2,5.9,0.6c1.6,0.4,3,1,4,1.8c1,0.8,1.7,1.7,2.2,2.8c0.5,1.1,0.7,2.4,0.7,3.8v3.8
		c0,1.8-0.4,3.3-1.3,4.6c-0.9,1.2-2.1,2-3.6,2.3c1.6,0.4,2.9,1.2,3.9,2.2c1,1,1.5,2.6,1.5,4.6v6.1c0,1.2-0.2,2.3-0.6,3.4
		c-0.4,1.1-1.1,2-2.1,2.9c-1,0.8-2.4,1.5-4,2c-1.7,0.5-3.8,0.7-6.4,0.7H0L0,41.6z M39.3,26.6c0-1.3-0.5-2.2-1.5-2.7
		c-1-0.5-2.3-0.8-3.8-0.8l-26.1,0v12.3H34c1.6,0,2.9-0.3,3.8-0.9c1-0.6,1.5-1.7,1.5-3.4V26.6L39.3,26.6z M38.8,9.4
		c0-1.1-0.3-2-1-2.5c-0.7-0.5-2-0.8-3.9-0.8l-26,0V17h26c1.9,0,3.2-0.3,3.9-0.8c0.7-0.5,1-1.3,1-2.5V9.4L38.8,9.4z M54.8,41.6V0h7.9
		v41.6H54.8L54.8,41.6z M90,41.6V6.1H68.2V0H119v6.1H97.8v35.4H90L90,41.6z M180.4,41.6V12.5l-21.2,29.1h-6.4l-21.2-29.1v29.1h-7.3
		V0h7.3l24.7,34l24.6-34h6.7v41.6H180.4L180.4,41.6z M243.5,41.6L222,8.1l-21.8,33.5h-8.7L219.1,0h5.7l27.5,41.6H243.5L243.5,41.6z
		 M256.5,41.6V0h7.9v41.6H256.5L256.5,41.6z M323.6,41.6L279.2,9.2v32.4h-6.9V0h6.9l41.4,30.9V0h6.9v41.6H323.6L323.6,41.6z"/>
	<polygon class="st2" points="27.8,70.5 21.5,56.6 15.1,70.5 12.6,70.5 4.2,52.4 7.5,52.4 13.8,66.3 20.2,52.4 22.8,52.4 29,66.3 
		35.4,52.4 38.7,52.4 30.4,70.5 27.8,70.5 	"/>
	<polygon class="st2" points="73.6,70.6 64.2,56 54.7,70.6 50.9,70.6 63,52.4 65.5,52.4 77.5,70.6 73.6,70.6 	"/>
	<path class="st2" d="M112.9,70.6l-4.3-8.1h-9.6v8.1h-3.4V52.5h15.4c1,0,1.9,0.1,2.6,0.3c0.7,0.2,1.3,0.5,1.8,0.9
		c0.5,0.4,0.8,0.8,1,1.4c0.2,0.5,0.3,1.1,0.3,1.8v1.3c0,1.2-0.3,2.1-1,2.9c-0.7,0.8-1.8,1.2-3.5,1.4l4.3,8.1H112.9L112.9,70.6z
		 M113.3,56.8c0-1.1-0.8-1.7-2.3-1.7h-12v4.7h12c1.5,0,2.3-0.6,2.3-1.7V56.8L113.3,56.8z"/>
	<polygon class="st2" points="244.6,70.7 225.3,56.6 225.3,70.7 222.3,70.7 222.3,52.6 225.3,52.6 243.3,66.1 243.3,52.6 
		246.3,52.6 246.3,70.7 244.6,70.7 	"/>
	<polygon class="st2" points="308.2,70.6 308.2,63.2 296.6,52.5 301,52.5 309.9,60.8 318.9,52.5 323.2,52.5 311.7,63.2 311.7,70.6 
		308.2,70.6 	"/>
	<polygon class="st2" points="273.1,70.5 273.1,55 263.6,55 263.6,52.4 285.8,52.4 285.8,55 276.6,55 276.6,70.5 273.1,70.5 	"/>
	<path class="st2" d="M153.3,70.6l-4.3-8.1h-9.6v8.1H136V52.5h15.4c1,0,1.9,0.1,2.6,0.3c0.7,0.2,1.3,0.5,1.8,0.9
		c0.5,0.4,0.8,0.8,1,1.4c0.2,0.5,0.3,1.1,0.3,1.8l0,1.3c0,1.2-0.3,2.1-1,2.9c-0.7,0.8-1.8,1.2-3.5,1.4l4.3,8.1H153.3L153.3,70.6z
		 M153.7,56.8c0-1.1-0.8-1.7-2.3-1.7h-12v4.7h12c1.5,0,2.3-0.6,2.3-1.7L153.7,56.8L153.7,56.8z"/>
	<polygon class="st2" points="198.1,70.6 188.7,56 179.2,70.6 175.4,70.6 187.4,52.4 189.9,52.4 201.9,70.6 198.1,70.6 	"/>
</g>
</svg>
