<?xml version="1.0" encoding="UTF-8"?>
<!-- Generator: Adobe Illustrator 21.0.2, SVG Export Plug-In . SVG Version: 6.00 Build 0)  -->
<svg version="1.1" id="Слой_1" xmlns="http://www.w3.org/2000/svg" xmlns:xlink="http://www.w3.org/1999/xlink" x="0px" y="0px" viewBox="0 0 595.3 841.9" style="enable-background:new 0 0 595.3 841.9;" xml:space="preserve">
<style type="text/css">
	.st0{fill:none;}
</style>
<path style="fill:#4f9835;" d="M493.3,534.9c0-0.2,0-0.4-0.1-0.6c0-0.2-0.1-0.4-0.1-0.6c-0.1-0.2-0.1-0.4-0.1-0.6c-0.1-0.2-0.1-0.4-0.3-0.6  c-0.1-0.2-0.1-0.4-0.3-0.6c-0.1-0.2-0.2-0.4-0.4-0.5c-0.1-0.1-0.2-0.4-0.4-0.5c-0.1-0.1-0.3-0.3-0.5-0.4l-0.4-0.4  c-0.1-0.1-0.4-0.2-0.6-0.4c-0.1-0.1-0.3-0.2-0.5-0.3l-79-39c-0.2-0.1-0.4-0.2-0.7-0.3c-1.4-0.5-34-11.9-60.6,0.1l-58.8,21.3  c-0.1,0.1-0.4,0.1-0.5,0.2c-8.5,3.9-12.9,12.5-11.1,21.6c1.8,9,9.1,15.4,18.3,15.8h0.1c0.6,0,3.2-0.1,30-1.9  c11.7-0.7,23.7-1.5,24.8-1.6c3.4-0.1,6.2-2.9,6.2-6.3c0.1-3.6-2.7-6.6-6.4-6.7c-0.4,0-0.4,0-25.4,1.6c-12.5,0.8-26.6,1.7-28.9,1.9  c-4.5-0.4-5.6-4.2-5.9-5.3c-0.5-2.4,0.2-5.7,3.6-7.3l58.8-21.3c0.1-0.1,0.3-0.1,0.5-0.2c20.6-9.4,47.6-0.9,50.8,0.1l35.2,17.3  l-19.3,45.6c-9.5-5.9-21.1-7.5-31.9-4.2l-79,23.7c-9.4,2.9-19.8,1.8-28.4-2.9l-123.7-67c-4.4-2.4-3-6.7-2.7-7.5  c0.4-1.1,2.3-4.7,6.8-3.5l96.1,32c3.4,1.1,7.1-0.7,8.2-4.1c1.1-3.4-0.7-7.1-4.1-8.2l-96.3-32.2c-0.1-0.1-0.2-0.1-0.4-0.1  c-9.5-2.6-18.8,2-22.4,11.2c-3.7,9.2-0.2,19,8.5,23.8l123.7,67.2c11.7,6.4,25.6,7.8,38.3,3.9l79-23.7c7.2-2.1,15-1.1,21.4,2.9  l40.3,25.4c0.2,0.1,0.4,0.2,0.6,0.3c0.1,0,0.1,0.1,0.1,0.1h0.1c0.1,0.1,0.1,0.1,0.3,0.1c0.1,0.1,0.4,0.1,0.5,0.2  c0.1,0,0.2,0.1,0.3,0.1c0.1,0.1,0.4,0.1,0.5,0.1c0.1,0,0.2,0,0.3,0.1c0.3,0,0.5,0.1,0.8,0.1c0.3,0,0.6,0,0.9-0.1  c0.1,0,0.2,0,0.3-0.1c0.2,0,0.4-0.1,0.6-0.1c0.1,0,0.2-0.1,0.3-0.1c0.1-0.1,0.4-0.1,0.5-0.2c0.1-0.1,0.2-0.1,0.3-0.1  c0.1-0.1,0.3-0.1,0.5-0.3c0.1-0.1,0.2-0.1,0.3-0.1c0.1-0.1,0.3-0.2,0.4-0.3c0.1-0.1,0.2-0.1,0.3-0.2l0.4-0.4l0.3-0.3  c0.1-0.1,0.2-0.3,0.3-0.4c0.1-0.1,0.1-0.2,0.2-0.3c0,0,0-0.1,0.1-0.1c0-0.1,0.1-0.1,0.1-0.1c0.1-0.1,0.2-0.4,0.3-0.6l28.7-61  c0.1-0.2,0.1-0.4,0.2-0.6c0.1-0.2,0.1-0.4,0.2-0.6c0.1-0.2,0.1-0.4,0.1-0.6c0-0.2,0.1-0.4,0.1-0.6  C493.3,535.3,493.3,535.1,493.3,534.9L493.3,534.9z M478.3,538.2l-22.9,48.7l-23.1-14.6l19.8-46.9L478.3,538.2z M478.3,538.2"/>
<rect x="142" y="277" class="st0" width="351.9" height="326.7"/>
<path style="fill:#4f9835;" d="M252.2,388.4h18.2c7.5,0,13.5,6,13.5,13.5c0,7.5-6,13.5-13.5,13.5h-32.7c-3.6,0-6.5,2.9-6.5,6.5c0,3.6,2.9,6.5,6.5,6.5h17.1  v12.8c0,3.6,2.9,6.5,6.5,6.5s6.5-2.9,6.5-6.5v-12.8h2.7c14.6,0,26.5-11.9,26.5-26.5c0-14.6-11.9-26.5-26.5-26.5h-18.2  c-7.5,0-13.5-6-13.5-13.5c0-7.5,6-13.5,13.5-13.5h32.2c3.6,0,6.5-2.9,6.5-6.5c0-3.6-2.9-6.5-6.5-6.5h-16.6v-12.5  c0-3.6-2.9-6.5-6.5-6.5s-6.5,2.9-6.5,6.5v12.6h-2.7c-14.6,0-26.5,11.9-26.5,26.5C225.8,376.6,237.7,388.4,252.2,388.4L252.2,388.4z   M252.2,388.4"/>
<path style="fill:#4f9835;" d="M261.4,486.6c57.8,0,104.7-47,104.7-104.7c0-57.7-47-104.8-104.7-104.8c-57.7,0-104.8,47-104.8,104.8  C156.7,439.7,203.7,486.6,261.4,486.6L261.4,486.6z M261.4,290.2c50.6,0,91.7,41.1,91.7,91.7c0,50.6-41.1,91.7-91.7,91.7  c-50.6,0-91.7-41.1-91.7-91.7C169.7,331.3,210.8,290.2,261.4,290.2L261.4,290.2z M261.4,290.2"/>
</svg>