<svg xmlns="http://www.w3.org/2000/svg" viewBox="0 0 20.96 20.96"><defs><style>.cls-1{fill:#dcc35c;}</style></defs><title>phone</title><g id="Слой_2" data-name="Слой 2"><g id="Слой_1-2" data-name="Слой 1"><path class="cls-1" d="M10.48,15.91a.75.75,0,1,0,.75.75.76.76,0,0,0-.75-.75"/><path class="cls-1" d="M10.48,0A10.48,10.48,0,1,0,21,10.48,10.48,10.48,0,0,0,10.48,0m4.59,17.41a1.18,1.18,0,0,1-1.18,1.18H7.07a1.18,1.18,0,0,1-1.18-1.18V3.55A1.18,1.18,0,0,1,7.07,2.37h6.82a1.18,1.18,0,0,1,1.18,1.18Z"/><path class="cls-1" d="M8.8,3.66h3.37c.09,0,.15-.13.15-.29s-.07-.28-.15-.28H8.8c-.09,0-.15.13-.15.28s.06.29.15.29"/></g></g></svg>