<?xml version="1.0" encoding="UTF-8"?>
<!-- Generator: Adobe Illustrator 21.1.0, SVG Export Plug-In . SVG Version: 6.00 Build 0)  -->
<svg version="1.1" id="Layer_1" xmlns="http://www.w3.org/2000/svg" xmlns:xlink="http://www.w3.org/1999/xlink" x="0px" y="0px" viewBox="0 0 32 32" style="enable-background:new 0 0 32 32;" xml:space="preserve">
<style type="text/css">
	.st0{fill:#FF8400;}
</style>
<g>
	<path class="st0" d="M13.2,20c-0.2,0-0.5-0.1-0.7-0.3L7.8,15l1.3-1.3l4,4L22.8,8l1.3,1.3L13.8,19.7C13.7,19.9,13.4,20,13.2,20z"/>
</g>
<path class="st0" d="M28.7,4.1L16.2,0.6c-0.2,0-0.3,0-0.5,0L3.3,4.1C2.9,4.2,2.6,4.5,2.6,4.9v10.4c0,3.9,1.8,7.6,4.9,9.9l7.9,6  c0.2,0.1,0.3,0.2,0.5,0.2c0.2,0,0.4-0.1,0.5-0.2l7.9-6c3.1-2.3,4.9-6,4.9-9.9V4.9C29.4,4.5,29.1,4.2,28.7,4.1z M27.7,5.6v9.8  c0,3.3-1.6,6.5-4.2,8.5L16,29.5l-7.4-5.6c-2.6-2-4.2-5.2-4.2-8.5V5.6L16,2.3L27.7,5.6z"/>
</svg>