<svg xmlns="http://www.w3.org/2000/svg" viewBox="0 0 20.96 20.96"><defs><style>.cls-1{fill:#dcc35c;}</style></defs><title>Ресурс 4</title><g id="Слой_2" data-name="Слой 2"><g id="Слой_1-2" data-name="Слой 1"><path class="cls-1" d="M16.4,6.7a7,7,0,0,0-2.89-2.55A8.44,8.44,0,0,1,14.78,6.7Z"/><path class="cls-1" d="M7.46,4.15A7,7,0,0,0,4.57,6.7H6.19A8.43,8.43,0,0,1,7.46,4.15"/><path class="cls-1" d="M7,13.18h3V11H6.71A11.89,11.89,0,0,0,7,13.18"/><path class="cls-1" d="M7.3,6.7H9.94V3.54C8.83,3.83,7.88,5,7.3,6.7"/><path class="cls-1" d="M6.71,9.95H9.94V7.78H7a11.89,11.89,0,0,0-.28,2.16"/><path class="cls-1" d="M9.94,17.43V14.26H7.3c.58,1.68,1.54,2.87,2.65,3.17"/><path class="cls-1" d="M5.9,7.78H4a7,7,0,0,0-.52,2.16H5.63A12.73,12.73,0,0,1,5.9,7.78"/><path class="cls-1" d="M5.63,11H3.49A7,7,0,0,0,4,13.18H5.9A12.67,12.67,0,0,1,5.63,11"/><path class="cls-1" d="M4.57,14.26a7,7,0,0,0,2.89,2.55,8.42,8.42,0,0,1-1.28-2.55Z"/><path class="cls-1" d="M11,14.26v3.17c1.11-.29,2.07-1.48,2.65-3.17Z"/><path class="cls-1" d="M15.06,7.78a12.83,12.83,0,0,1,.27,2.16h2.14A7,7,0,0,0,17,7.78Z"/><path class="cls-1" d="M10.48,0A10.48,10.48,0,1,0,21,10.48,10.48,10.48,0,0,0,10.48,0m8.07,11A8.09,8.09,0,0,1,11,18.55v0H9.94v0A8.1,8.1,0,0,1,2.4,11h0V9.95h0A8.11,8.11,0,0,1,9.94,2.4v0H11v0a8.1,8.1,0,0,1,7.54,7.54h0V11Z"/><path class="cls-1" d="M15.06,13.18H17A7,7,0,0,0,17.48,11H15.33a12.87,12.87,0,0,1-.27,2.16"/><path class="cls-1" d="M11,3.54V6.7h2.65C13.09,5,12.13,3.83,11,3.54"/><path class="cls-1" d="M13.51,16.81a7,7,0,0,0,2.89-2.55H14.78a8.6,8.6,0,0,1-1.28,2.55"/><path class="cls-1" d="M14,7.78H11V9.95h3.23A12.24,12.24,0,0,0,14,7.78"/><path class="cls-1" d="M14.25,11H11v2.16h3A11.89,11.89,0,0,0,14.25,11"/></g></g></svg>